<?xml version="1.0" encoding="UTF-8" standalone="no"?>
<!-- Created with Inkscape (http://www.inkscape.org/) -->

<svg
   xmlns:dc="http://purl.org/dc/elements/1.1/"
   xmlns:cc="http://creativecommons.org/ns#"
   xmlns:rdf="http://www.w3.org/1999/02/22-rdf-syntax-ns#"
   xmlns:svg="http://www.w3.org/2000/svg"
   xmlns="http://www.w3.org/2000/svg"
   xmlns:sodipodi="http://sodipodi.sourceforge.net/DTD/sodipodi-0.dtd"
   xmlns:inkscape="http://www.inkscape.org/namespaces/inkscape"
   version="1.1"
   id="svg2"
   width="32"
   height="32"
   viewBox="0 0 32 32"
   sodipodi:docname="youtube.svg"
   inkscape:version="0.92.3 (2405546, 2018-03-11)">
  <metadata
     id="metadata8">
    <rdf:RDF>
      <cc:Work
         rdf:about="">
        <dc:format>image/svg+xml</dc:format>
        <dc:type
           rdf:resource="http://purl.org/dc/dcmitype/StillImage" />
        <dc:title></dc:title>
      </cc:Work>
    </rdf:RDF>
  </metadata>
  <defs
     id="defs6" />
  <sodipodi:namedview
     pagecolor="#ffffff"
     bordercolor="#666666"
     borderopacity="1"
     objecttolerance="10"
     gridtolerance="10"
     guidetolerance="10"
     inkscape:pageopacity="0"
     inkscape:pageshadow="2"
     inkscape:window-width="1366"
     inkscape:window-height="705"
     id="namedview4"
     showgrid="false"
     inkscape:zoom="9.7888173"
     inkscape:cx="1.7530459"
     inkscape:cy="25.60866"
     inkscape:window-x="-8"
     inkscape:window-y="-8"
     inkscape:window-maximized="1"
     inkscape:current-layer="svg2" />
  <path
     style="fill:#d9e0e6;stroke-width:0.06645906;fill-opacity:1"
     d="m 10.550201,27.159654 c -3.9868503,-0.09671 -6.0090103,-0.239753 -7.0093303,-0.495838 -0.97859,-0.250523 -1.89624,-0.89279 -2.3477,-1.643175 -0.27509002,-0.457232 -0.63108002,-1.447833 -0.76982002,-2.142162 -0.3244,-1.62343 -0.50536,-5.843342 -0.38688,-9.021817 0.12584,-3.375796 0.2711,-4.583607 0.70299,-5.845395 C 1.0231307,7.182515 1.3104607,6.711216 1.8282807,6.22529 c 0.43728,-0.410353 1.24622,-0.848251 1.81018,-0.9799 2.66928,-0.623109 22.0534803,-0.623109 24.7227703,0 0.92809,0.21665 1.9844,0.968595 2.4523,1.745686 0.26355,0.437707 0.62405,1.452018 0.76897,2.163607 0.31596,1.551399 0.49836,5.823088 0.38236,8.95457 -0.15219,4.108531 -0.44559,5.802655 -1.21171,6.996543 -0.46763,0.728739 -1.43979,1.398252 -2.35869,1.624401 -1.58409,0.389856 -10.56555,0.606012 -17.84426,0.429457 z m 6.00426,-9.009069 c 4.35166,-2.256732 4.69298,-2.437293 4.69452,-2.483456 6e-4,-0.01857 -0.79845,-0.45222 -1.77571,-0.963657 -4.05106,-2.120063 -6.69706,-3.488558 -6.74518,-3.488558 -0.0282,0 -0.0512,2.003741 -0.0512,4.452757 0,2.449016 0.0178,4.452757 0.0395,4.452757 0.0218,0 1.74886,-0.886429 3.83802,-1.969843 z"
     id="path817"
     inkscape:connector-curvature="0" />
</svg>
