<?xml version="1.0" encoding="UTF-8" standalone="no"?>
<!-- Created with Inkscape (http://www.inkscape.org/) -->

<svg
   xmlns:dc="http://purl.org/dc/elements/1.1/"
   xmlns:cc="http://creativecommons.org/ns#"
   xmlns:rdf="http://www.w3.org/1999/02/22-rdf-syntax-ns#"
   xmlns:svg="http://www.w3.org/2000/svg"
   xmlns="http://www.w3.org/2000/svg"
   xmlns:sodipodi="http://sodipodi.sourceforge.net/DTD/sodipodi-0.dtd"
   xmlns:inkscape="http://www.inkscape.org/namespaces/inkscape"
   width="460"
   height="280"
   viewBox="0 0 121.70833 74.083329"
   version="1.1"
   id="svg8"
   inkscape:version="0.92.3 (2405546, 2018-03-11)"
   sodipodi:docname="dalecrim_quadrado2.svg"
   inkscape:export-filename="R:\Dropbox\Meu Buffer de Trabalho\Origamid\img\dalecrim_quadrado1.png"
   inkscape:export-xdpi="96"
   inkscape:export-ydpi="96"
   style="shape-rendering:crispEdges">
  <defs
     id="defs2">
    <inkscape:perspective
       sodipodi:type="inkscape:persp3d"
       inkscape:vp_x="0 : 148.49999 : 1"
       inkscape:vp_y="0 : 999.99991 : 0"
       inkscape:vp_z="210 : 148.49999 : 1"
       inkscape:persp3d-origin="105 : 98.999991 : 1"
       id="perspective4786" />
  </defs>
  <sodipodi:namedview
     id="base"
     pagecolor="#ffffff"
     bordercolor="#666666"
     borderopacity="1"
     inkscape:pageopacity="1"
     inkscape:pageshadow="2"
     inkscape:zoom="1.28"
     inkscape:cx="268.61578"
     inkscape:cy="187.46025"
     inkscape:document-units="mm"
     inkscape:current-layer="layer1"
     showgrid="false"
     inkscape:pagecheckerboard="false"
     inkscape:window-width="1366"
     inkscape:window-height="705"
     inkscape:window-x="-8"
     inkscape:window-y="-8"
     inkscape:window-maximized="1"
     objecttolerance="1"
     gridtolerance="1"
     guidetolerance="1"
     showguides="false"
     inkscape:showpageshadow="true"
     units="px">
    <inkscape:grid
       type="xygrid"
       id="grid4835" />
  </sodipodi:namedview>
  <metadata
     id="metadata5">
    <rdf:RDF>
      <cc:Work
         rdf:about="">
        <dc:format>image/svg+xml</dc:format>
        <dc:type
           rdf:resource="http://purl.org/dc/dcmitype/StillImage" />
        <dc:title />
      </cc:Work>
    </rdf:RDF>
  </metadata>
  <g
     inkscape:groupmode="layer"
     id="layer3"
     inkscape:label="Figuras Geométricas"
     transform="translate(0,-222.91668)" />
  <g
     inkscape:groupmode="layer"
     id="layer2"
     inkscape:label="Apóstrofo"
     style="opacity:0.98999999"
     transform="translate(0,-222.91668)">
    <text
       xml:space="preserve"
       style="font-style:normal;font-variant:normal;font-weight:normal;font-stretch:normal;font-size:105.88058472px;line-height:1.25;font-family:'Yu Gothic UI';-inkscape-font-specification:'Yu Gothic UI';letter-spacing:0px;word-spacing:0px;fill:#000000;fill-opacity:1;stroke:none;stroke-width:2.64701462"
       x="12.146275"
       y="90.823219"
       id="text58"
       transform="scale(1.4012174,0.71366512)"><tspan
         sodipodi:role="line"
         id="tspan56"
         x="12.146275"
         y="186.19562"
         style="font-style:normal;font-variant:normal;font-weight:normal;font-stretch:normal;font-family:'Yu Gothic UI';-inkscape-font-specification:'Yu Gothic UI';stroke-width:2.64701462" /></text>
  </g>
  <g
     inkscape:label="D"
     inkscape:groupmode="layer"
     id="layer1"
     style="display:inline;opacity:1"
     transform="translate(0,-222.91668)">
    <g
       id="g890">
      <text
         id="text18"
         y="110.31223"
         x="68.955536"
         style="font-style:normal;font-variant:normal;font-weight:normal;font-stretch:normal;font-size:10.58333302px;line-height:1.25;font-family:Alyfe;-inkscape-font-specification:Alyfe;letter-spacing:0px;word-spacing:0px;fill:#000000;fill-opacity:1;stroke:none;stroke-width:0.26458332"
         xml:space="preserve"><tspan
           style="stroke-width:0.26458332"
           y="119.676"
           x="68.955536"
           id="tspan16"
           sodipodi:role="line" /></text>
      <text
         id="text22"
         y="108.04044"
         x="57.730217"
         style="font-style:normal;font-variant:normal;font-weight:normal;font-stretch:normal;font-size:10.58333302px;line-height:1.25;font-family:'CAT Altgotisch';-inkscape-font-specification:'CAT Altgotisch';letter-spacing:0px;word-spacing:0px;fill:#000000;fill-opacity:1;stroke:none;stroke-width:0.26458332"
         xml:space="preserve"><tspan
           style="font-style:normal;font-variant:normal;font-weight:normal;font-stretch:normal;font-family:'CAT Altgotisch';-inkscape-font-specification:'CAT Altgotisch';stroke-width:0.26458332"
           y="117.30086"
           x="57.730217"
           id="tspan20"
           sodipodi:role="line" /></text>
      <g
         transform="matrix(5.5846166,0,0,5.3983192,-555.95944,-933.70699)"
         id="g53" />
      <g
         inkscape:export-ydpi="96"
         inkscape:export-xdpi="96"
         transform="matrix(0.35076705,0,0,0.35076705,19.939135,190.23961)"
         id="g1053">
        <path
           inkscape:connector-curvature="0"
           id="path871"
           d="m 146.28828,168.21405 c -0.23874,-0.2375 -0.11361,-0.71253 0.57972,-2.20077 0.3649,-0.78326 0.80478,-1.97301 0.9775,-2.64389 l 0.31405,-1.21979 0.25562,0.86472 c 0.4243,1.43528 0.0544,3.59269 -0.78573,4.58314 -0.4012,0.47297 -1.14279,0.81391 -1.34116,0.61659 z m -2.76171,-0.7343 c -0.32753,-0.1391 -0.28176,-0.24283 0.85671,-1.94139 1.30344,-1.94471 1.79247,-3.00919 2.43933,-5.30969 0.40725,-1.44836 0.42261,-1.47401 0.55339,-0.92356 0.17236,0.72544 -0.0446,2.68966 -0.45946,4.15948 -0.39438,1.39734 -1.42115,3.14236 -2.16833,3.6851 -0.67109,0.48749 -0.781,0.51719 -1.22164,0.33006 z m 10.6599,-2.8291 c -0.69394,-0.36911 -2.18474,-1.70384 -3.02102,-2.70474 -0.47877,-0.57302 -1.31627,-2.44154 -1.11372,-2.48481 0.16301,-0.0348 4.45325,4.05038 4.75522,4.52796 0.32642,0.51625 0.37977,0.90966 0.13057,0.96289 -0.0724,0.0155 -0.41041,-0.12011 -0.75105,-0.3013 z m -3.48583,0.64842 c -0.85462,-0.67738 -1.64067,-2.42442 -2.63594,-5.85851 -0.36526,-1.26029 -0.89802,-2.74907 -1.1839,-3.30839 -0.5301,-1.0371 -0.84266,-1.29338 -0.67316,-0.55194 0.16957,0.74177 -0.4223,2.67318 -1.1668,3.80749 -0.83524,1.27257 -2.38868,2.95062 -3.22324,3.48181 -0.59529,0.3789 -1.08386,0.44872 -1.1489,0.1642 -0.0183,-0.0802 0.53713,-0.73946 1.23435,-1.46512 2.58438,-2.6898 3.74232,-5.15793 3.44973,-7.35309 -0.11568,-0.86791 -0.20751,-1.06537 -0.97631,-2.09921 -1.20604,-1.62183 -3.9145,-4.64637 -4.01081,-4.47887 -0.16748,0.29131 -0.0173,2.06546 0.34023,4.01827 0.39978,2.18375 0.41637,3.02273 0.0613,3.09858 -0.77242,0.165 -1.5947,-2.61818 -1.59979,-5.41485 -0.004,-1.94843 -0.30836,-3.56255 -0.67053,-3.55069 -0.15585,0.005 -0.31707,0.34793 -0.4611,0.98052 -0.24152,1.06075 -0.80014,1.81784 -1.30861,1.77356 -0.57413,-0.05 -0.62086,-0.41586 -0.15688,-1.22851 0.45439,-0.79584 0.63186,-1.95012 0.40928,-2.66192 -0.18709,-0.59829 -0.82987,-1.5281 -1.42597,-2.0627 -0.49759,-0.44626 -0.52833,-0.51573 -0.4026,-0.90992 0.34064,-1.06807 0.98086,-1.03236 2.15115,0.12 0.66731,0.6571 0.91591,0.78625 2.00226,1.04018 1.66236,0.38857 3.11758,0.4164 4.21011,0.0805 0.77184,-0.23728 0.89659,-0.2366 1.11186,0.006 0.20225,0.22798 0.19557,0.3302 -0.0403,0.61639 -0.55327,0.67139 -2.61279,0.86629 -4.78115,0.45244 -0.25554,-0.0488 -0.20526,0.0527 0.29874,0.60271 0.58666,0.64026 0.65348,0.66708 2.09561,0.84092 4.08689,0.49268 7.32883,1.33118 8.46282,2.18885 0.76521,0.57875 0.80456,0.79577 0.16889,0.93156 -0.35555,0.0759 -1.27047,-0.12301 -3.06416,-0.66631 -2.49414,-0.75547 -5.55821,-1.45493 -5.66496,-1.2932 -0.0293,0.0444 0.50852,0.76394 1.19514,1.59901 0.68662,0.83508 1.26415,1.58724 1.28341,1.67147 0.0718,0.31417 2.4318,2.1224 3.87107,2.96604 1.85277,1.08602 3.05429,1.54063 4.82678,1.82626 1.47081,0.23701 1.81152,0.49024 1.22932,0.91365 -1.12445,0.81778 -4.54438,-0.2769 -7.1791,-2.29794 -0.34708,-0.26624 -0.6235,-0.45096 -0.61424,-0.41049 0.009,0.0405 0.3421,0.74198 0.73966,1.5589 1.10332,2.26709 1.89346,3.04335 3.9495,3.88008 1.38559,0.56389 1.96188,0.7088 3.68715,0.92718 1.12182,0.142 1.42255,0.23819 1.47602,0.4721 0.0873,0.38204 -0.52275,0.5932 -1.71524,0.59366 -2.00761,7.7e-4 -3.8281,-0.69126 -5.49765,-2.08985 -0.28488,-0.23864 -0.55206,-0.38416 -0.59374,-0.32336 -0.0417,0.0608 0.49852,1.45067 1.20046,3.08861 1.45531,3.39591 1.76257,4.39761 1.39632,4.55208 -0.13216,0.0557 -0.4274,-0.047 -0.65609,-0.22822 z m -7.08818,-8.53876 c -0.31083,-0.1917 -0.43391,-0.84173 -0.33758,-1.7828 0.065,-0.63533 -0.0168,-1.13931 -0.40734,-2.50935 -0.2688,-0.94289 -0.57586,-1.90577 -0.68237,-2.13973 -0.18826,-0.41355 -0.18459,-0.41866 0.13192,-0.18376 0.17906,0.13289 0.59153,0.56988 0.9166,0.97108 0.53869,0.66485 0.62674,0.8872 0.99398,2.51039 0.43415,1.91883 0.46688,2.4648 0.17438,2.90795 -0.22446,0.34007 -0.48429,0.41451 -0.78959,0.22622 z m 6.35298,-4.75479 c -2.60898,-0.65978 -3.63555,-1.20229 -4.92555,-2.60302 -0.4144,-0.44998 -0.76475,-0.86752 -0.77855,-0.92787 -0.0138,-0.0604 0.45516,0.16927 1.04213,0.51028 2.05048,1.19125 3.98958,1.84599 5.74396,1.93944 0.9485,0.0505 1.7343,0.32232 1.80319,0.6237 0.0487,0.21292 -0.51393,0.73488 -0.8753,0.81207 -0.18118,0.0387 -1.08563,-0.12086 -2.00988,-0.3546 z"
           style="fill:#081c0e;stroke-width:0.15451741;fill-opacity:1" />
        <g
           id="g1039">
          <rect
             transform="matrix(-0.71780634,0.69624281,-0.72018663,-0.69378039,0,0)"
             y="-251.06087"
             x="-1.8122848"
             height="89.621597"
             width="89.611992"
             id="rect4671-2"
             style="fill:#ffffff;fill-opacity:0;stroke:#081c0e;stroke-width:3.59237003;stroke-miterlimit:4;stroke-dasharray:none;stroke-opacity:1" />
          <text
             xml:space="preserve"
             style="font-style:normal;font-variant:normal;font-weight:normal;font-stretch:normal;font-size:12.05489826px;line-height:1.25;font-family:FoglihtenNo04;-inkscape-font-specification:FoglihtenNo04;letter-spacing:0px;word-spacing:0px;display:inline;opacity:1;fill:#081c0e;fill-opacity:1;stroke:none;stroke-width:0.30137247;"
             x="110.40305"
             y="219.04318"
             id="text34"
             transform="matrix(5.852405,0,0,5.1513084,-555.95943,-933.707)"><tspan
               sodipodi:role="line"
               id="tspan32"
               x="110.40305"
               y="219.04318"
               style="font-style:italic;font-variant:normal;font-weight:bold;font-stretch:normal;font-family:FoglihtenNo04;-inkscape-font-specification:'FoglihtenNo04 Medium';stroke-width:0.30137247;fill:#081c0e;fill-opacity:1;">D</tspan></text>
          <g
             transform="matrix(4.5929046,0,0,4.4396898,-629.24332,256.37593)"
             id="g4843">
            <path
               inkscape:connector-curvature="0"
               id="path869"
               d="m 148.0397,1.7313033 c -0.0209,-0.03388 0.006,-0.086526 0.12292,-0.2439057 0.0617,-0.08283 0.14256,-0.2115148 0.17958,-0.2859672 l 0.0673,-0.135368 0.007,0.1079615 c 0.0109,0.179196 -0.0871,0.4232753 -0.20813,0.5185139 -0.0578,0.04548 -0.15085,0.066915 -0.16825,0.038766 z m -0.29445,-0.1555115 c -0.0336,-0.024551 -0.0257,-0.035585 0.14763,-0.2064979 0.19843,-0.1956808 0.28157,-0.3084214 0.4147,-0.5623559 0.0838,-0.15987296 0.0862,-0.16249942 0.0868,-0.0945768 7.4e-4,0.0895159 -0.0749,0.3147428 -0.1601,0.4769458 -0.081,0.1542046 -0.24287,0.3333754 -0.34178,0.3783701 -0.0888,0.040413 -0.10208,0.041144 -0.14724,0.00811 z m 1.28351,-0.06483 c -0.0692,-0.060754 -0.20379,-0.2548963 -0.27275,-0.3934159 -0.0395,-0.079303 -0.0861,-0.31974332 -0.0619,-0.31974332 0.0194,0 0.40041,0.58737022 0.4223,0.65103052 0.0237,0.068814 0.0195,0.1163536 -0.0102,0.1163536 -0.009,0 -0.0435,-0.024401 -0.0774,-0.054225 z m -0.41253,-0.011295 c -0.0794,-0.1009869 -0.12333,-0.3258713 -0.14719,-0.754123 -0.009,-0.15716574 -0.0306,-0.34536504 -0.0485,-0.41822085 -0.0333,-0.13509102 -0.0621,-0.17302793 -0.0621,-0.0817043 0,0.0913642 -0.11732,0.30333304 -0.23127,0.41786584 -0.12783,0.12849225 -0.34773,0.28658744 -0.45625,0.32803294 -0.0774,0.0295628 -0.13468,0.0255068 -0.13468,-0.009538 0,-0.009873 0.0802,-0.0733654 0.17814,-0.14109343 0.36318,-0.25104824 0.55868,-0.51184811 0.58243,-0.77697766 0.009,-0.10482595 0.004,-0.13031753 -0.0564,-0.27101357 -0.0948,-0.22071515 -0.32379,-0.64384721 -0.33907,-0.62659197 -0.0266,0.0300087 -0.0556,0.24212566 -0.0657,0.48042358 -0.0113,0.26647796 -0.0312,0.36542099 -0.0735,0.36542099 -0.092,0 -0.11309,-0.34747171 -0.0411,-0.67602883 0.0502,-0.22890362 0.0574,-0.42610584 0.016,-0.43379804 -0.0178,-0.00331 -0.045,0.032906 -0.0778,0.10358121 -0.0549,0.11851078 -0.138,0.19340776 -0.19458,0.1754526 -0.0639,-0.0202739 -0.0597,-0.064412 0.0141,-0.14820665 0.0722,-0.0820621 0.12233,-0.21316336 0.11554,-0.30233766 -0.006,-0.074954 -0.0545,-0.2002712 -0.10835,-0.2780058 -0.0449,-0.064889 -0.0466,-0.073818 -0.0221,-0.116957 0.0664,-0.1168844 0.13814,-0.09663 0.24108,0.068056 0.0587,0.093907 0.0836,0.115309 0.2003,0.1723809 0.17863,0.087333 0.3431,0.1271071 0.47584,0.1150709 0.0938,-0.0085 0.10792,-0.00529 0.12606,0.0286 0.017,0.031846 0.0136,0.043683 -0.0206,0.071376 -0.0802,0.064966 -0.31908,0.03619 -0.55449,-0.066804 -0.0277,-0.012138 -0.0247,0.00104 0.0183,0.078274 0.05,0.089906 0.0569,0.094731 0.21607,0.1513236 0.45115,0.16037887 0.79741,0.34017426 0.90388,0.46934212 0.0719,0.0871622 0.0707,0.11363456 -0.005,0.11363456 -0.0423,0 -0.14103,-0.0463154 -0.33055,-0.15511365 -0.26352,-0.15128522 -0.5932,-0.31029125 -0.60951,-0.29397587 -0.004,0.004477 0.0379,0.10247002 0.0942,0.2177617 0.0563,0.11529169 0.10231,0.21811018 0.10231,0.22848556 0,0.0386955 0.22098,0.3102473 0.36247,0.44542664 0.18214,0.17401458 0.30674,0.25754196 0.50053,0.33554874 0.16082,0.0647301 0.19292,0.10301474 0.11584,0.13813407 -0.14887,0.0678291 -0.50868,-0.14651518 -0.75532,-0.44995054 -0.0325,-0.03997377 -0.0591,-0.06860067 -0.0591,-0.06361541 0,0.0049853 0.0196,0.09571636 0.0435,0.20162487 0.0664,0.29391486 0.13597,0.40489687 0.34765,0.55473556 0.14266,0.10097842 0.20432,0.13245305 0.3945,0.20137802 0.12366,0.0448171 0.1553,0.0636563 0.1553,0.0924676 0,0.0470564 -0.0747,0.0565495 -0.21011,0.0266891 -0.22792,-0.0502711 -0.41662,-0.17720819 -0.56985,-0.3833334 -0.0262,-0.0351718 -0.0527,-0.0589629 -0.059,-0.0528689 -0.006,0.006094 0.0189,0.18286634 0.0561,0.39282756 0.0771,0.43530814 0.086,0.56065134 0.0404,0.56960384 -0.0164,0.00323 -0.0473,-0.016236 -0.0685,-0.043259 z m -0.58305,-1.18056582 c -0.0303,-0.0303098 -0.0274,-0.10973355 0.008,-0.21783275 0.0239,-0.07297914 0.0277,-0.13421712 0.0189,-0.30490536 -0.006,-0.11747185 -0.0159,-0.2382511 -0.0219,-0.26839833 -0.0106,-0.0532886 -0.0101,-0.0537968 0.0197,-0.018271 0.0169,0.0200981 0.0524,0.0817629 0.0789,0.13703287 0.0439,0.0915899 0.0481,0.11991092 0.0477,0.31974336 -5.1e-4,0.23623097 -0.011,0.30116774 -0.0557,0.34587225 -0.0343,0.0343055 -0.0657,0.0365299 -0.0955,0.006759 z m 0.84457,-0.39901506 c -0.27904,-0.14292917 -0.3815,-0.23239137 -0.49159,-0.42924704 -0.0354,-0.0632392 -0.0643,-0.12106237 -0.0643,-0.12849602 0,-0.007434 0.0473,0.0312968 0.10506,0.0860678 0.20185,0.19133279 0.40499,0.31686544 0.60171,0.37184935 0.10637,0.0297271 0.18852,0.08135775 0.18852,0.11847886 0,0.02622462 -0.0774,0.07340851 -0.12044,0.07340851 -0.0216,0 -0.1201,-0.0414276 -0.21896,-0.09206146 z"
               style="fill:#081c0e;stroke-width:0.01827105;fill-opacity:1" />
            <text
               xml:space="preserve"
               style="font-style:normal;font-variant:normal;font-weight:normal;font-stretch:normal;font-size:10.58333302px;line-height:1.25;font-family:Alyfe;-inkscape-font-specification:Alyfe;letter-spacing:0px;word-spacing:0px;fill:#081c0e;fill-opacity:1;stroke:none;stroke-width:0.26458332;"
               x="148.29895"
               y="7.0166669"
               id="text4806"><tspan
                 sodipodi:role="line"
                 id="tspan4804"
                 x="148.29895"
                 y="7.0166669"
                 style="stroke-width:0.26458332;fill:#081c0e;fill-opacity:1;">Alecrim</tspan></text>
            <text
               xml:space="preserve"
               style="font-style:normal;font-variant:normal;font-weight:normal;font-stretch:normal;font-size:10.58333302px;line-height:1.25;font-family:Alyfe;-inkscape-font-specification:Alyfe;letter-spacing:0px;word-spacing:0px;fill:#081c0e;fill-opacity:1;stroke:none;stroke-width:0.26458332;"
               x="140.62604"
               y="7.0166664"
               id="text4810"><tspan
                 sodipodi:role="line"
                 id="tspan4808"
                 x="140.62604"
                 y="7.0166664"
                 style="stroke-width:0.26458332;fill:#081c0e;fill-opacity:1;">d</tspan></text>
          </g>
        </g>
      </g>
    </g>
  </g>
</svg>
