<?xml version="1.0" encoding="UTF-8" standalone="no"?>
<!-- Generator: Adobe Illustrator 18.0.0, SVG Export Plug-In . SVG Version: 6.00 Build 0)  -->

<svg
   xmlns:dc="http://purl.org/dc/elements/1.1/"
   xmlns:cc="http://creativecommons.org/ns#"
   xmlns:rdf="http://www.w3.org/1999/02/22-rdf-syntax-ns#"
   xmlns:svg="http://www.w3.org/2000/svg"
   xmlns="http://www.w3.org/2000/svg"
   xmlns:sodipodi="http://sodipodi.sourceforge.net/DTD/sodipodi-0.dtd"
   xmlns:inkscape="http://www.inkscape.org/namespaces/inkscape"
   version="1.1"
   id="Capa_1"
   x="0px"
   y="0px"
   viewBox="0 0 200 140"
   xml:space="preserve"
   sodipodi:docname="lamp.svg"
   width="200"
   height="140"
   inkscape:version="0.92.3 (2405546, 2018-03-11)"><metadata
   id="metadata53"><rdf:RDF><cc:Work
       rdf:about=""><dc:format>image/svg+xml</dc:format><dc:type
         rdf:resource="http://purl.org/dc/dcmitype/StillImage" /><dc:title></dc:title></cc:Work></rdf:RDF></metadata><defs
   id="defs51" /><sodipodi:namedview
   pagecolor="#ffffff"
   bordercolor="#666666"
   borderopacity="1"
   objecttolerance="10"
   gridtolerance="10"
   guidetolerance="10"
   inkscape:pageopacity="0"
   inkscape:pageshadow="2"
   inkscape:window-width="1366"
   inkscape:window-height="705"
   id="namedview49"
   showgrid="false"
   inkscape:zoom="3.1440504"
   inkscape:cx="66.65711"
   inkscape:cy="58.538944"
   inkscape:window-x="-8"
   inkscape:window-y="-8"
   inkscape:window-maximized="1"
   inkscape:current-layer="Capa_1" />















<g
   id="g86"
   style="fill:#d9e0e6;fill-opacity:1"><g
     transform="matrix(0.2383309,0,0,0.2383309,40.376163,10.376163)"
     id="g16"
     style="fill:#d9e0e6;fill-opacity:1">
	
	
	
	
	
	
	<g
   id="g95"
   style="fill:#d9e0e6;fill-opacity:1"><path
     d="m 250.197,128.078 c -57.517,0 -104.093,46.626 -104.093,104.108 0,27.267 10.493,58.861 27.658,84.518 18.556,27.774 31.28,59.401 36.94,92.321 l 2.653,15.51 h 73.648 l 2.668,-15.576 c 5.727,-33.169 18.237,-64.234 36.941,-92.225 17.164,-25.672 27.672,-57.268 27.672,-84.549 0.001,-57.481 -46.591,-104.107 -104.087,-104.107 z"
     id="path2"
     inkscape:connector-curvature="0"
     style="fill:#d9e0e6;fill-opacity:1" /><path
     d="m 213.865,464.032 c 0,20.049 16.264,36.313 36.313,36.313 20.054,0 36.303,-16.248 36.303,-36.297 v -15.164 h -72.615 v 15.148 z"
     id="path4"
     inkscape:connector-curvature="0"
     style="fill:#d9e0e6;fill-opacity:1" /><path
     d="m 250.178,113.454 c 9.281,0 16.787,-7.507 16.787,-16.788 V 16.789 C 266.965,7.508 259.459,0 250.178,0 240.902,0 233.39,7.508 233.39,16.789 v 79.877 c 0,9.281 7.511,16.788 16.788,16.788 z"
     id="path6"
     inkscape:connector-curvature="0"
     style="fill:#d9e0e6;fill-opacity:1" /><path
     d="m 167.055,147.903 c 6.561,-6.562 6.561,-17.186 0,-23.742 L 110.577,67.679 c -6.562,-6.556 -17.187,-6.556 -23.741,0 -6.561,6.56 -6.561,17.185 0,23.741 l 56.482,56.483 c 3.275,3.274 7.574,4.914 11.869,4.914 4.293,0 8.593,-1.639 11.868,-4.914 z"
     id="path8"
     inkscape:connector-curvature="0"
     style="fill:#d9e0e6;fill-opacity:1" /><path
     d="M 115.822,214.237 H 35.93 c -9.279,0 -16.788,7.508 -16.788,16.788 0,9.281 7.509,16.788 16.788,16.788 h 79.893 c 9.277,0 16.789,-7.507 16.789,-16.788 -0.001,-9.28 -7.512,-16.788 -16.79,-16.788 z"
     id="path10"
     inkscape:connector-curvature="0"
     style="fill:#d9e0e6;fill-opacity:1" /><path
     d="m 464.414,214.237 h -79.863 c -9.279,0 -16.787,7.508 -16.787,16.788 0,9.281 7.508,16.788 16.787,16.788 h 79.863 c 9.281,0 16.789,-7.507 16.789,-16.788 0,-9.28 -7.508,-16.788 -16.789,-16.788 z"
     id="path12"
     inkscape:connector-curvature="0"
     style="fill:#d9e0e6;fill-opacity:1" /><path
     d="m 413.508,67.679 c -6.56,-6.556 -17.186,-6.556 -23.74,0 L 333.3,124.161 c -6.556,6.557 -6.556,17.181 0,23.742 3.28,3.274 7.579,4.914 11.874,4.914 4.293,0 8.586,-1.64 11.867,-4.914 L 413.508,91.42 c 6.556,-6.556 6.556,-17.181 0,-23.741 z"
     id="path14"
     inkscape:connector-curvature="0"
     style="fill:#d9e0e6;fill-opacity:1" /></g>
</g><g
     transform="translate(0,-360.345)"
     id="g18"
     style="fill:#d9e0e6;fill-opacity:1">
</g><g
     transform="translate(0,-360.345)"
     id="g20"
     style="fill:#d9e0e6;fill-opacity:1">
</g><g
     transform="translate(0,-360.345)"
     id="g22"
     style="fill:#d9e0e6;fill-opacity:1">
</g><g
     transform="translate(0,-360.345)"
     id="g24"
     style="fill:#d9e0e6;fill-opacity:1">
</g><g
     transform="translate(0,-360.345)"
     id="g26"
     style="fill:#d9e0e6;fill-opacity:1">
</g><g
     transform="translate(0,-360.345)"
     id="g28"
     style="fill:#d9e0e6;fill-opacity:1">
</g><g
     transform="translate(0,-360.345)"
     id="g30"
     style="fill:#d9e0e6;fill-opacity:1">
</g><g
     transform="translate(0,-360.345)"
     id="g32"
     style="fill:#d9e0e6;fill-opacity:1">
</g><g
     transform="translate(0,-360.345)"
     id="g34"
     style="fill:#d9e0e6;fill-opacity:1">
</g><g
     transform="translate(0,-360.345)"
     id="g36"
     style="fill:#d9e0e6;fill-opacity:1">
</g><g
     transform="translate(0,-360.345)"
     id="g38"
     style="fill:#d9e0e6;fill-opacity:1">
</g><g
     transform="translate(0,-360.345)"
     id="g40"
     style="fill:#d9e0e6;fill-opacity:1">
</g><g
     transform="translate(0,-360.345)"
     id="g42"
     style="fill:#d9e0e6;fill-opacity:1">
</g><g
     transform="translate(0,-360.345)"
     id="g44"
     style="fill:#d9e0e6;fill-opacity:1">
</g><g
     transform="translate(0,-360.345)"
     id="g46"
     style="fill:#d9e0e6;fill-opacity:1">
</g></g>
</svg>