<?xml version="1.0" encoding="UTF-8" standalone="no"?>
<!-- Created with Inkscape (http://www.inkscape.org/) -->

<svg
   xmlns:dc="http://purl.org/dc/elements/1.1/"
   xmlns:cc="http://creativecommons.org/ns#"
   xmlns:rdf="http://www.w3.org/1999/02/22-rdf-syntax-ns#"
   xmlns:svg="http://www.w3.org/2000/svg"
   xmlns="http://www.w3.org/2000/svg"
   xmlns:sodipodi="http://sodipodi.sourceforge.net/DTD/sodipodi-0.dtd"
   xmlns:inkscape="http://www.inkscape.org/namespaces/inkscape"
   width="80"
   height="60"
   viewBox="0 0 21.166666 15.875001"
   version="1.1"
   id="svg8"
   inkscape:export-filename="R:\Dropbox\Meu Buffer de Trabalho\Origamid\N2.png"
   inkscape:export-xdpi="600"
   inkscape:export-ydpi="600"
   inkscape:version="0.92.3 (2405546, 2018-03-11)"
   sodipodi:docname="logo-peq.svg"
   style="shape-rendering:crispEdges">
  <defs
     id="defs2" />
  <sodipodi:namedview
     id="base"
     pagecolor="#081c0e"
     bordercolor="#666666"
     borderopacity="1.0"
     inkscape:pageopacity="0"
     inkscape:pageshadow="2"
     inkscape:zoom="2.8284271"
     inkscape:cx="-74.266049"
     inkscape:cy="12.249027"
     inkscape:document-units="mm"
     inkscape:current-layer="layer3"
     showgrid="false"
     inkscape:pagecheckerboard="true"
     showborder="true"
     inkscape:window-width="1600"
     inkscape:window-height="837"
     inkscape:window-x="1358"
     inkscape:window-y="-8"
     inkscape:window-maximized="1"
     inkscape:showpageshadow="false"
     units="px" />
  <metadata
     id="metadata5">
    <rdf:RDF>
      <cc:Work
         rdf:about="">
        <dc:format>image/svg+xml</dc:format>
        <dc:type
           rdf:resource="http://purl.org/dc/dcmitype/StillImage" />
        <dc:title />
      </cc:Work>
    </rdf:RDF>
  </metadata>
  <g
     inkscape:label="barras"
     inkscape:groupmode="layer"
     id="layer1"
     transform="translate(0,-281.125)">
    <path
       style="fill:#081c0e;fill-opacity:1;stroke:#081c0e;stroke-width:0.71541053;stroke-linecap:square;stroke-miterlimit:0;stroke-dasharray:0, 7.86951594;stroke-dashoffset:10.01574802;stroke-opacity:1"
       d=""
       id="path937"
       inkscape:connector-curvature="0"
       transform="matrix(0.26458333,0,0,0.26458333,0,105.75001)" />
    <path
       style="fill:#081c0e;fill-opacity:1;stroke:#081c0e;stroke-width:0.08942632;stroke-linecap:square;stroke-miterlimit:0;stroke-dasharray:0, 0.98368949;stroke-dashoffset:10.01574802;stroke-opacity:1"
       d=""
       id="path957"
       inkscape:connector-curvature="0"
       transform="matrix(0.26458333,0,0,0.26458333,0,105.75001)" />
    <path
       style="fill:#081c0e;fill-opacity:1;stroke:#081c0e;stroke-width:0.08942632;stroke-linecap:square;stroke-miterlimit:0;stroke-dasharray:0, 0.98368949;stroke-dashoffset:10.01574802;stroke-opacity:1"
       d=""
       id="path967"
       inkscape:connector-curvature="0"
       transform="matrix(0.26458333,0,0,0.26458333,0,105.75001)" />
    <path
       style="fill:#081c0e;fill-opacity:1;stroke:#081c0e;stroke-width:0.08942632;stroke-linecap:square;stroke-miterlimit:0;stroke-dasharray:0, 0.98368949;stroke-dashoffset:10.01574802;stroke-opacity:1"
       d=""
       id="path969"
       inkscape:connector-curvature="0"
       transform="matrix(0.26458333,0,0,0.26458333,0,105.75001)" />
    <path
       style="fill:#081c0e;fill-opacity:1;stroke:#081c0e;stroke-width:0.08942632;stroke-linecap:square;stroke-miterlimit:0;stroke-dasharray:0, 0.98368949;stroke-dashoffset:10.01574802;stroke-opacity:1"
       d=""
       id="path971"
       inkscape:connector-curvature="0"
       transform="matrix(0.26458333,0,0,0.26458333,0,105.75001)" />
    <path
       style="fill:#081c0e;fill-opacity:1;stroke:#081c0e;stroke-width:0.08942632;stroke-linecap:square;stroke-miterlimit:0;stroke-dasharray:0, 0.98368949;stroke-dashoffset:10.01574802;stroke-opacity:1"
       d=""
       id="path975"
       inkscape:connector-curvature="0"
       transform="matrix(0.26458333,0,0,0.26458333,0,105.75001)" />
    <path
       style="fill:#081c0e;fill-opacity:1;stroke:#081c0e;stroke-width:0.08942632;stroke-linecap:square;stroke-miterlimit:0;stroke-dasharray:0, 0.98368949;stroke-dashoffset:10.01574802;stroke-opacity:1"
       d=""
       id="path977"
       inkscape:connector-curvature="0"
       transform="matrix(0.26458333,0,0,0.26458333,0,105.75001)" />
    <path
       style="fill:#081c0e;fill-opacity:1;stroke:#081c0e;stroke-width:0.08942632;stroke-linecap:square;stroke-miterlimit:0;stroke-dasharray:0, 0.98368949;stroke-dashoffset:10.01574802;stroke-opacity:1"
       d=""
       id="path979"
       inkscape:connector-curvature="0"
       transform="matrix(0.26458333,0,0,0.26458333,0,105.75001)" />
    <path
       style="fill:#081c0e;fill-opacity:1;stroke:#081c0e;stroke-width:0.06323396;stroke-linecap:square;stroke-miterlimit:0;stroke-dasharray:0, 0.69557351;stroke-dashoffset:10.01574802;stroke-opacity:1"
       d=""
       id="path987"
       inkscape:connector-curvature="0"
       transform="matrix(0.26458333,0,0,0.26458333,0,105.75001)" />
    <path
       style="fill:#081c0e;fill-opacity:1;stroke:#081c0e;stroke-width:0.12646791;stroke-linecap:square;stroke-miterlimit:0;stroke-dasharray:0, 1.39114702;stroke-dashoffset:10.01574802;stroke-opacity:1"
       d=""
       id="path1025"
       inkscape:connector-curvature="0"
       transform="matrix(0.26458333,0,0,0.26458333,0,105.75001)" />
    <path
       style="fill:#081c0e;fill-opacity:1;stroke:#081c0e;stroke-width:0.12646791;stroke-linecap:square;stroke-miterlimit:0;stroke-dasharray:0, 1.39114702;stroke-dashoffset:10.01574802;stroke-opacity:1"
       d=""
       id="path1027"
       inkscape:connector-curvature="0"
       transform="matrix(0.26458333,0,0,0.26458333,0,105.75001)" />
    <path
       style="fill:#081c0e;fill-opacity:1;stroke:#081c0e;stroke-width:0.03161698;stroke-linecap:square;stroke-miterlimit:0;stroke-dasharray:0, 0.34778676;stroke-dashoffset:10.01574802;stroke-opacity:1"
       d=""
       id="path1033"
       inkscape:connector-curvature="0"
       transform="matrix(0.26458333,0,0,0.26458333,0,105.75001)" />
    <path
       style="fill:#081c0e;fill-opacity:1;stroke:#081c0e;stroke-width:0.03161698;stroke-linecap:square;stroke-miterlimit:0;stroke-dasharray:0, 0.34778676;stroke-dashoffset:10.01574802;stroke-opacity:1"
       d=""
       id="path1047"
       inkscape:connector-curvature="0"
       transform="matrix(0.26458333,0,0,0.26458333,0,105.75001)" />
    <path
       style="fill:#081c0e;fill-opacity:1;stroke:#081c0e;stroke-width:0.03161698;stroke-linecap:square;stroke-miterlimit:0;stroke-dasharray:0, 0.34778676;stroke-dashoffset:10.01574802;stroke-opacity:1"
       d=""
       id="path1049"
       inkscape:connector-curvature="0"
       transform="matrix(0.26458333,0,0,0.26458333,0,105.75001)" />
    <path
       style="fill:#081c0e;fill-opacity:1;stroke:#081c0e;stroke-width:0.03161698;stroke-linecap:square;stroke-miterlimit:0;stroke-dasharray:0, 0.34778676;stroke-dashoffset:10.01574802;stroke-opacity:1"
       d=""
       id="path1051"
       inkscape:connector-curvature="0"
       transform="matrix(0.26458333,0,0,0.26458333,0,105.75001)" />
    <path
       style="fill:#081c0e;fill-opacity:1;stroke:#081c0e;stroke-width:0.03161698;stroke-linecap:square;stroke-miterlimit:0;stroke-dasharray:0, 0.34778676;stroke-dashoffset:10.01574802;stroke-opacity:1"
       d=""
       id="path1053"
       inkscape:connector-curvature="0"
       transform="matrix(0.26458333,0,0,0.26458333,0,105.75001)" />
    <path
       style="fill:#081c0e;fill-opacity:1;stroke:#081c0e;stroke-width:0.00395212;stroke-linecap:square;stroke-miterlimit:0;stroke-dasharray:0, 0.04347334;stroke-dashoffset:10.01574802;stroke-opacity:1"
       d=""
       id="path1083"
       inkscape:connector-curvature="0"
       transform="matrix(0.26458333,0,0,0.26458333,0,105.75001)" />
    <path
       style="fill:#081c0e;fill-opacity:1;stroke:#081c0e;stroke-width:0.00395212;stroke-linecap:square;stroke-miterlimit:0;stroke-dasharray:0, 0.04347334;stroke-dashoffset:10.01574802;stroke-opacity:1"
       d=""
       id="path1093"
       inkscape:connector-curvature="0"
       transform="matrix(0.26458333,0,0,0.26458333,0,105.75001)" />
    <path
       style="fill:#081c0e;fill-opacity:1;stroke:#081c0e;stroke-width:0.00395212;stroke-linecap:square;stroke-miterlimit:0;stroke-dasharray:0, 0.04347334;stroke-dashoffset:10.01574802;stroke-opacity:1"
       d=""
       id="path1097"
       inkscape:connector-curvature="0"
       transform="matrix(0.26458333,0,0,0.26458333,0,105.75001)" />
    <path
       style="fill:#081c0e;fill-opacity:1;stroke:#081c0e;stroke-width:0.0039124;stroke-linecap:square;stroke-miterlimit:0;stroke-dasharray:0, 0.04303642;stroke-dashoffset:10.01574802;stroke-opacity:1"
       d=""
       id="path1111"
       inkscape:connector-curvature="0"
       transform="matrix(0.26458333,0,0,0.26458333,0,105.75001)" />
    <path
       style="fill:#081c0e;fill-opacity:1;stroke:#081c0e;stroke-width:0.0039124;stroke-linecap:square;stroke-miterlimit:0;stroke-dasharray:0, 0.04303642;stroke-dashoffset:10.01574802;stroke-opacity:1"
       d=""
       id="path1113"
       inkscape:connector-curvature="0"
       transform="matrix(0.26458333,0,0,0.26458333,0,105.75001)" />
    <path
       style="fill:#081c0e;fill-opacity:1;stroke:#081c0e;stroke-width:0.0039124;stroke-linecap:square;stroke-miterlimit:0;stroke-dasharray:0, 0.04303642;stroke-dashoffset:10.01574802;stroke-opacity:1"
       d=""
       id="path1115"
       inkscape:connector-curvature="0"
       transform="matrix(0.26458333,0,0,0.26458333,0,105.75001)" />
    <path
       style="fill:#081c0e;fill-opacity:1;stroke:#081c0e;stroke-width:0.0039124;stroke-linecap:square;stroke-miterlimit:0;stroke-dasharray:0, 0.04303642;stroke-dashoffset:10.01574802;stroke-opacity:1"
       d=""
       id="path1123"
       inkscape:connector-curvature="0"
       transform="matrix(0.26458333,0,0,0.26458333,0,105.75001)" />
    <path
       style="fill:#081c0e;fill-opacity:1;stroke:#081c0e;stroke-width:0.0039124;stroke-linecap:square;stroke-miterlimit:0;stroke-dasharray:0, 0.04303642;stroke-dashoffset:10.01574802;stroke-opacity:1"
       d=""
       id="path1127"
       inkscape:connector-curvature="0"
       transform="matrix(0.26458333,0,0,0.26458333,0,105.75001)" />
    <path
       style="fill:#081c0e;fill-opacity:1;stroke:#081c0e;stroke-width:0.0039124;stroke-linecap:square;stroke-miterlimit:0;stroke-dasharray:0, 0.04303642;stroke-dashoffset:10.01574802;stroke-opacity:1"
       d=""
       id="path1131"
       inkscape:connector-curvature="0"
       transform="matrix(0.26458333,0,0,0.26458333,0,105.75001)" />
    <path
       style="fill:#081c0e;fill-opacity:1;stroke:#081c0e;stroke-width:0.0039124;stroke-linecap:square;stroke-miterlimit:0;stroke-dasharray:0, 0.04303642;stroke-dashoffset:10.01574802;stroke-opacity:1"
       d=""
       id="path1133"
       inkscape:connector-curvature="0"
       transform="matrix(0.26458333,0,0,0.26458333,0,105.75001)" />
    <path
       style="fill:#081c0e;fill-opacity:1;stroke:#081c0e;stroke-width:0.0039124;stroke-linecap:square;stroke-miterlimit:0;stroke-dasharray:0, 0.04303642;stroke-dashoffset:10.01574802;stroke-opacity:1"
       d=""
       id="path1135"
       inkscape:connector-curvature="0"
       transform="matrix(0.26458333,0,0,0.26458333,0,105.75001)" />
    <path
       style="fill:#081c0e;fill-opacity:1;stroke:#081c0e;stroke-width:0.0039124;stroke-linecap:square;stroke-miterlimit:0;stroke-dasharray:0, 0.04303642;stroke-dashoffset:10.01574802;stroke-opacity:1"
       d=""
       id="path1139"
       inkscape:connector-curvature="0"
       transform="matrix(0.26458333,0,0,0.26458333,0,105.75001)" />
    <path
       style="fill:#081c0e;fill-opacity:1;stroke:#081c0e;stroke-width:0.0039124;stroke-linecap:square;stroke-miterlimit:0;stroke-dasharray:0, 0.04303642;stroke-dashoffset:10.01574802;stroke-opacity:1"
       d=""
       id="path1141"
       inkscape:connector-curvature="0"
       transform="matrix(0.26458333,0,0,0.26458333,0,105.75001)" />
    <path
       style="fill:#081c0e;fill-opacity:1;stroke:#081c0e;stroke-width:0.0039124;stroke-linecap:square;stroke-miterlimit:0;stroke-dasharray:0, 0.04303642;stroke-dashoffset:10.01574802;stroke-opacity:1"
       d=""
       id="path1143"
       inkscape:connector-curvature="0"
       transform="matrix(0.26458333,0,0,0.26458333,0,105.75001)" />
    <path
       style="fill:#081c0e;fill-opacity:1;stroke:#081c0e;stroke-width:0.17705508;stroke-linecap:square;stroke-miterlimit:0;stroke-dasharray:0, 1.94760582;stroke-dashoffset:10.01574802;stroke-opacity:1"
       d=""
       id="path1181"
       inkscape:connector-curvature="0"
       transform="matrix(0.26458333,0,0,0.26458333,0,105.75001)" />
    <path
       style="fill:#081c0e;fill-opacity:1;stroke:#081c0e;stroke-width:0.17705508;stroke-linecap:square;stroke-miterlimit:0;stroke-dasharray:0, 1.94760582;stroke-dashoffset:10.01574802;stroke-opacity:1"
       d=""
       id="path1183"
       inkscape:connector-curvature="0"
       transform="matrix(0.26458333,0,0,0.26458333,0,105.75001)" />
    <path
       style="fill:#081c0e;fill-opacity:1;stroke:#081c0e;stroke-width:0.17705508;stroke-linecap:square;stroke-miterlimit:0;stroke-dasharray:0, 1.94760582;stroke-dashoffset:10.01574802;stroke-opacity:1"
       d=""
       id="path1233"
       inkscape:connector-curvature="0"
       transform="matrix(0.26458333,0,0,0.26458333,0,105.75001)" />
    <path
       style="fill:#081c0e;fill-opacity:1;stroke:#081c0e;stroke-width:0.17705508;stroke-linecap:square;stroke-miterlimit:0;stroke-dasharray:0, 1.94760582;stroke-dashoffset:10.01574802;stroke-opacity:1"
       d=""
       id="path1253"
       inkscape:connector-curvature="0"
       transform="matrix(0.26458333,0,0,0.26458333,0,105.75001)" />
    <path
       style="fill:#081c0e;fill-opacity:1;stroke:#081c0e;stroke-width:0.17705508;stroke-linecap:square;stroke-miterlimit:0;stroke-dasharray:0, 1.94760582;stroke-dashoffset:10.01574802;stroke-opacity:1"
       d=""
       id="path1273"
       inkscape:connector-curvature="0"
       transform="matrix(0.26458333,0,0,0.26458333,0,105.75001)" />
    <path
       style="fill:#081c0e;fill-opacity:1;stroke:#081c0e;stroke-width:0.17705508;stroke-linecap:square;stroke-miterlimit:0;stroke-dasharray:0, 1.94760582;stroke-dashoffset:10.01574802;stroke-opacity:1"
       d=""
       id="path1283"
       inkscape:connector-curvature="0"
       transform="matrix(0.26458333,0,0,0.26458333,0,105.75001)" />
    <path
       style="fill:#081c0e;fill-opacity:1;stroke:#081c0e;stroke-width:0.17705508;stroke-linecap:square;stroke-miterlimit:0;stroke-dasharray:0, 1.94760582;stroke-dashoffset:10.01574802;stroke-opacity:1"
       d=""
       id="path1291"
       inkscape:connector-curvature="0"
       transform="matrix(0.26458333,0,0,0.26458333,0,105.75001)" />
  </g>
  <g
     inkscape:groupmode="layer"
     id="layer2"
     inkscape:label="diagonal"
     transform="translate(0,-175.37499)" />
  <g
     inkscape:groupmode="layer"
     id="layer3"
     inkscape:label="triangulinhos"
     transform="translate(0,-175.37499)">
    <g
       id="g861"
       transform="matrix(0.23518518,0,0,0.23426202,3.4623176e-7,146.00626)">
      <g
         transform="matrix(0.23868762,0,0,0.23868762,81.802387,243.09284)"
         id="g890">
        <g
           aria-label="N"
           style="font-style:normal;font-variant:normal;font-weight:normal;font-stretch:normal;font-size:373.62637329px;line-height:1.25;font-family:Alef;-inkscape-font-specification:Alef;letter-spacing:0px;word-spacing:0px;fill:#e0ba22;fill-opacity:1;stroke:none;stroke-width:9.34065914"
           id="text58-1">
          <path
             d="m -342.71735,-437.42801 0.37363,-1.12088 q 0.74725,-10.46154 5.60439,-18.68132 4.85715,-8.59341 11.95605,-14.57143 7.47253,-5.97802 16.43956,-8.96703 9.34066,-2.98901 18.68132,-2.98901 10.83516,0 20.92307,4.48351 10.46154,4.10989 17.93407,13.82418 l 178.21978,209.97802 q 3.362637,4.10989 7.846154,5.97802 4.857143,1.86813 9.714285,1.86813 8.593407,0 15.692308,-5.23076 7.472528,-5.6044 8.21978,-15.31869 V -466.9445 q 0,-5.97802 4.10989,-10.08791 4.10989,-4.10989 10.087912,-4.10989 5.978022,0 10.0879125,4.10989 4.1098901,4.10989 4.1098901,10.08791 v 201.38462 q -1.1208791,10.46154 -5.9780219,19.05494 -4.8571427,8.59341 -12.3296707,14.94506 -7.098901,5.97802 -16.065934,9.34066 -8.967033,3.36264 -18.307692,3.36264 -11.582418,0 -21.67033,-4.85715 -5.230769,-2.24176 -8.967033,-4.85714 -3.362637,-2.61539 -8.593406,-8.96703 L -272.84922,-447.51593 q -3.36263,-4.10989 -7.84615,-5.60439 -4.48352,-1.86813 -9.71429,-1.86813 -8.5934,0 -16.06593,5.23077 -7.47253,5.23077 -7.84615,14.94505 v 199.14286 q 0,5.97802 -4.10989,10.08791 -4.10989,4.10989 -10.08792,4.10989 -5.97802,0 -10.08791,-4.10989 -4.10989,-4.10989 -4.10989,-10.08791 z"
             style="font-style:normal;font-variant:normal;font-weight:300;font-stretch:normal;font-size:373.62637329px;font-family:'Arkitech Round';-inkscape-font-specification:'Arkitech Round, Light';font-variant-ligatures:normal;font-variant-caps:normal;font-variant-numeric:normal;font-feature-settings:normal;text-align:center;writing-mode:lr-tb;text-anchor:middle;fill:#e0ba22;fill-opacity:1;stroke-width:9.34065914"
             id="path52" />
        </g>
        <g
           aria-label="N"
           style="font-style:normal;font-variant:normal;font-weight:normal;font-stretch:normal;font-size:373.62637329px;line-height:1.25;font-family:Alef;-inkscape-font-specification:Alef;letter-spacing:0px;word-spacing:0px;fill:#d9e0e6;fill-opacity:1;stroke:none;stroke-width:9.34065914"
           id="text58">
          <path
             d="m -305.65547,-437.34568 0.37362,-1.12088 q 0.74726,-10.46153 5.6044,-18.68131 4.85714,-8.59341 11.95604,-14.57143 7.47253,-5.97803 16.43956,-8.96704 9.34066,-2.98901 18.68132,-2.98901 10.83517,0 20.92308,4.48352 10.46154,4.10989 17.93406,13.82418 l 178.219784,209.97802 q 3.362638,4.10989 7.846154,5.97802 4.857143,1.86813 9.714286,1.86813 8.5934064,0 15.6923075,-5.23077 7.4725274,-5.60439 8.2197802,-15.31868 v -198.76923 q 0,-5.97802 4.1098903,-10.08791 4.10989,-4.10989 10.087912,-4.10989 5.978022,0 10.087912,4.10989 4.10989,4.10989 4.10989,10.08791 v 201.38461 q -1.120879,10.46154 -5.978022,19.05495 -4.857143,8.59341 -12.32967,14.94505 -7.0989014,5.97803 -16.06593431,9.34066 -8.96703299,3.36264 -18.30769269,3.36264 -11.582417,0 -21.670329,-4.85714 -5.230769,-2.24176 -8.967033,-4.85714 -3.362638,-2.61539 -8.593407,-8.96704 L -235.78734,-447.43359 q -3.36264,-4.10989 -7.84616,-5.60439 -4.48351,-1.86814 -9.71428,-1.86814 -8.59341,0 -16.06594,5.23077 -7.47252,5.23077 -7.84615,14.94506 v 199.14285 q 0,5.97803 -4.10989,10.08792 -4.10989,4.10989 -10.08791,4.10989 -5.97802,0 -10.08791,-4.10989 -4.10989,-4.10989 -4.10989,-10.08792 z"
             style="font-style:normal;font-variant:normal;font-weight:300;font-stretch:normal;font-size:373.62637329px;font-family:'Arkitech Round';-inkscape-font-specification:'Arkitech Round, Light';font-variant-ligatures:normal;font-variant-caps:normal;font-variant-numeric:normal;font-feature-settings:normal;text-align:center;writing-mode:lr-tb;text-anchor:middle;fill:#d9e0e6;fill-opacity:1;stroke-width:9.34065914"
             id="path55" />
        </g>
      </g>
    </g>
  </g>
</svg>
