<?xml version="1.0" encoding="UTF-8" standalone="no"?>
<svg
   xmlns:dc="http://purl.org/dc/elements/1.1/"
   xmlns:cc="http://creativecommons.org/ns#"
   xmlns:rdf="http://www.w3.org/1999/02/22-rdf-syntax-ns#"
   xmlns:svg="http://www.w3.org/2000/svg"
   xmlns="http://www.w3.org/2000/svg"
   xmlns:sodipodi="http://sodipodi.sourceforge.net/DTD/sodipodi-0.dtd"
   xmlns:inkscape="http://www.inkscape.org/namespaces/inkscape"
   id="Capa_1"
   enable-background="new 0 0 516.657 516.657"
   height="140"
   viewBox="0 0 201.81914 141.2734"
   width="200"
   version="1.1"
   sodipodi:docname="thinking.svg"
   inkscape:version="0.92.3 (2405546, 2018-03-11)">
  <metadata
     id="metadata11">
    <rdf:RDF>
      <cc:Work
         rdf:about="">
        <dc:format>image/svg+xml</dc:format>
        <dc:type
           rdf:resource="http://purl.org/dc/dcmitype/StillImage" />
        <dc:title></dc:title>
      </cc:Work>
    </rdf:RDF>
  </metadata>
  <defs
     id="defs9" />
  <sodipodi:namedview
     pagecolor="#ffffff"
     bordercolor="#666666"
     borderopacity="1"
     objecttolerance="10"
     gridtolerance="10"
     guidetolerance="10"
     inkscape:pageopacity="0"
     inkscape:pageshadow="2"
     inkscape:window-width="1366"
     inkscape:window-height="705"
     id="namedview7"
     showgrid="false"
     inkscape:zoom="2.6104114"
     inkscape:cx="80.327867"
     inkscape:cy="62.915254"
     inkscape:window-x="-8"
     inkscape:window-y="-8"
     inkscape:window-maximized="1"
     inkscape:current-layer="Capa_1" />
  <g
     id="g837"
     style="fill:#d9e0e6;fill-opacity:1">
    <g
       id="g831"
       style="fill:#d9e0e6;fill-opacity:1">
      <g
         id="g820"
         transform="matrix(0.25227384,0,0,0.25227384,35.739862,5.4671992)"
         style="fill:#d9e0e6;fill-opacity:1">
        <path
           id="path2"
           d="M 487.404,134.943 C 471.971,117.85 451.813,106.51 429.584,102.196 428.268,83.913 420.917,66.709 408.382,52.949 393.609,36.73 373.404,27.236 351.489,26.215 338.576,25.606 325.961,27.995 314.37,33.16 296.066,13.264 270.835,1.39 243.376,0.11 219.818,-0.984 196.392,6.098 177.43,20.065 162.769,30.865 151.218,45.41 143.99,61.937 138.314,60.833 132.551,60.14 126.746,59.87 61.333,56.797 5.691,107.533 2.644,172.915 c -2.195,47.086 23.782,90.834 65.415,111.684 3.283,21.936 16.314,40.779 34.581,51.921 -6.026,10.335 -9.496,22.335 -9.496,35.137 0,38.599 31.402,70 70,70 34.515,0 63.256,-25.116 68.955,-58.028 0.484,0.008 0.969,0.034 1.453,0.034 26.318,-0.002 51.089,-11.993 67.49,-32.025 12.71,8.537 27.546,13.48 43.141,14.207 20.277,0.945 40.235,-5.432 56.186,-17.958 12.872,-10.109 22.491,-23.686 27.768,-38.969 47.64,-8.597 83.961,-49.271 86.262,-98.604 1.298,-27.885 -8.288,-54.652 -26.995,-75.371 z M 163.143,411.657 c -22.056,0 -40,-17.944 -40,-40 0,-22.056 17.944,-40 40,-40 22.056,0 40,17.944 40,40 0,22.056 -17.944,40 -40,40 z M 484.429,208.918 c -1.764,37.846 -31.531,68.563 -69.239,71.452 -6.679,0.512 -12.21,5.39 -13.551,11.953 -2.577,12.611 -9.609,23.965 -19.802,31.97 -10.291,8.081 -23.174,12.177 -36.26,11.585 -14.075,-0.656 -27.196,-6.64 -36.946,-16.85 -3.354,-3.512 -8.201,-5.18 -13.006,-4.484 -4.806,0.698 -8.976,3.68 -11.191,8.002 -10.204,19.906 -31.213,32.08 -53.528,31.056 -0.047,-0.002 -0.093,-0.007 -0.139,-0.009 -7.987,-29.869 -35.272,-51.936 -67.624,-51.936 -14.568,0 -28.108,4.478 -39.324,12.123 -15.443,-6.575 -26.302,-21.777 -26.565,-39.435 -0.09,-6.026 -3.778,-11.414 -9.364,-13.678 -34.814,-14.11 -57.028,-48.814 -55.278,-86.356 2.278,-48.856 43.897,-86.743 92.735,-84.475 8.021,0.375 15.931,1.821 23.509,4.299 3.904,1.276 8.161,0.896 11.777,-1.052 3.616,-1.948 6.275,-5.294 7.356,-9.257 4.304,-15.775 13.976,-29.841 27.234,-39.607 13.634,-10.041 29.794,-14.917 46.756,-14.143 22.685,1.059 43.229,12.316 56.365,30.887 4.684,6.624 13.786,8.322 20.542,3.835 9.275,-6.156 20.073,-9.119 31.207,-8.617 13.91,0.648 26.734,6.675 36.111,16.97 9.377,10.294 14.184,23.623 13.535,37.531 -0.043,0.925 -0.125,1.947 -0.25,3.125 -0.433,4.085 0.827,8.168 3.487,11.298 2.66,3.13 6.487,5.031 10.588,5.262 40.987,2.301 72.777,37.539 70.865,78.551 z"
           inkscape:connector-curvature="0"
           style="fill:#d9e0e6;fill-opacity:1" />
        <path
           id="path4"
           d="m 52.143,416.657 c -27.57,0 -50,22.43 -50,50 0,27.57 22.43,50 50,50 27.57,0 50,-22.43 50,-50 0,-27.57 -22.43,-50 -50,-50 z m 0,70 c -11.028,0 -20,-8.972 -20,-20 0,-11.028 8.972,-20 20,-20 11.028,0 20,8.972 20,20 0,11.028 -8.972,20 -20,20 z"
           inkscape:connector-curvature="0"
           style="fill:#d9e0e6;fill-opacity:1" />
      </g>
    </g>
  </g>
</svg>
